<svg height="1486" width="720" xmlns="http://www.w3.org/2000/svg">
<rect height="1486" fill="#555" width="720"></rect>
<text fill="#7f7" font-family="Courier New" font-size="12" xml:space="preserve">
<tspan x="10" y="26">4 megabytes installed</tspan>
<tspan x="10" y="42"></tspan>
<tspan x="10" y="58">node_modules</tspan>
<tspan x="10" y="74">└─┬ gulp-inline@0.1.3 </tspan>
<tspan x="10" y="90">  ├─┬ cheerio@0.22.0 </tspan>
<tspan x="10" y="106">  │ ├─┬ css-select@1.2.0 </tspan>
<tspan x="10" y="122">  │ │ ├── boolbase@1.0.0 </tspan>
<tspan x="10" y="138">  │ │ ├── css-what@2.1.0 </tspan>
<tspan x="10" y="154">  │ │ ├── domutils@1.5.1 </tspan>
<tspan x="10" y="170">  │ │ └── nth-check@1.0.1 </tspan>
<tspan x="10" y="186">  │ ├─┬ dom-serializer@0.1.0 </tspan>
<tspan x="10" y="202">  │ │ └── domelementtype@1.1.3 </tspan>
<tspan x="10" y="218">  │ ├── entities@1.1.1 </tspan>
<tspan x="10" y="234">  │ ├─┬ htmlparser2@3.9.2 </tspan>
<tspan x="10" y="250">  │ │ ├── domelementtype@1.3.0 </tspan>
<tspan x="10" y="266">  │ │ ├── domhandler@2.3.0 </tspan>
<tspan x="10" y="282">  │ │ └── inherits@2.0.3 </tspan>
<tspan x="10" y="298">  │ ├── lodash.assignin@4.2.0 </tspan>
<tspan x="10" y="314">  │ ├── lodash.bind@4.2.1 </tspan>
<tspan x="10" y="330">  │ ├── lodash.defaults@4.2.0 </tspan>
<tspan x="10" y="346">  │ ├── lodash.filter@4.6.0 </tspan>
<tspan x="10" y="362">  │ ├── lodash.flatten@4.4.0 </tspan>
<tspan x="10" y="378">  │ ├── lodash.foreach@4.5.0 </tspan>
<tspan x="10" y="394">  │ ├── lodash.map@4.6.0 </tspan>
<tspan x="10" y="410">  │ ├── lodash.merge@4.6.0 </tspan>
<tspan x="10" y="426">  │ ├── lodash.pick@4.4.0 </tspan>
<tspan x="10" y="442">  │ ├── lodash.reduce@4.6.0 </tspan>
<tspan x="10" y="458">  │ ├── lodash.reject@4.6.0 </tspan>
<tspan x="10" y="474">  │ └── lodash.some@4.6.0 </tspan>
<tspan x="10" y="490">  ├─┬ event-stream@3.3.4 </tspan>
<tspan x="10" y="506">  │ ├── duplexer@0.1.1 </tspan>
<tspan x="10" y="522">  │ ├── from@0.1.7 </tspan>
<tspan x="10" y="538">  │ ├── map-stream@0.1.0 </tspan>
<tspan x="10" y="554">  │ ├── pause-stream@0.0.11 </tspan>
<tspan x="10" y="570">  │ ├── split@0.3.3 </tspan>
<tspan x="10" y="586">  │ ├── stream-combiner@0.0.4 </tspan>
<tspan x="10" y="602">  │ └── through@2.3.8 </tspan>
<tspan x="10" y="618">  ├─┬ gulp-util@3.0.8 </tspan>
<tspan x="10" y="634">  │ ├── array-differ@1.0.0 </tspan>
<tspan x="10" y="650">  │ ├── array-uniq@1.0.3 </tspan>
<tspan x="10" y="666">  │ ├── beeper@1.1.1 </tspan>
<tspan x="10" y="682">  │ ├─┬ chalk@1.1.3 </tspan>
<tspan x="10" y="698">  │ │ ├── ansi-styles@2.2.1 </tspan>
<tspan x="10" y="714">  │ │ ├── escape-string-regexp@1.0.5 </tspan>
<tspan x="10" y="730">  │ │ ├─┬ has-ansi@2.0.0 </tspan>
<tspan x="10" y="746">  │ │ │ └── ansi-regex@2.1.1 </tspan>
<tspan x="10" y="762">  │ │ ├── strip-ansi@3.0.1 </tspan>
<tspan x="10" y="778">  │ │ └── supports-color@2.0.0 </tspan>
<tspan x="10" y="794">  │ ├── dateformat@2.0.0 </tspan>
<tspan x="10" y="810">  │ ├─┬ fancy-log@1.3.0 </tspan>
<tspan x="10" y="826">  │ │ └── time-stamp@1.0.1 </tspan>
<tspan x="10" y="842">  │ ├─┬ gulplog@1.0.0 </tspan>
<tspan x="10" y="858">  │ │ └── glogg@1.0.0 </tspan>
<tspan x="10" y="874">  │ ├─┬ has-gulplog@0.1.0 </tspan>
<tspan x="10" y="890">  │ │ └── sparkles@1.0.0 </tspan>
<tspan x="10" y="906">  │ ├── lodash._reescape@3.0.0 </tspan>
<tspan x="10" y="922">  │ ├── lodash._reevaluate@3.0.0 </tspan>
<tspan x="10" y="938">  │ ├── lodash._reinterpolate@3.0.0 </tspan>
<tspan x="10" y="954">  │ ├─┬ lodash.template@3.6.2 </tspan>
<tspan x="10" y="970">  │ │ ├── lodash._basecopy@3.0.1 </tspan>
<tspan x="10" y="986">  │ │ ├── lodash._basetostring@3.0.1 </tspan>
<tspan x="10" y="1002">  │ │ ├── lodash._basevalues@3.0.0 </tspan>
<tspan x="10" y="1018">  │ │ ├── lodash._isiterateecall@3.0.9 </tspan>
<tspan x="10" y="1034">  │ │ ├─┬ lodash.escape@3.2.0 </tspan>
<tspan x="10" y="1050">  │ │ │ └── lodash._root@3.0.1 </tspan>
<tspan x="10" y="1066">  │ │ ├─┬ lodash.keys@3.1.2 </tspan>
<tspan x="10" y="1082">  │ │ │ ├── lodash._getnative@3.9.1 </tspan>
<tspan x="10" y="1098">  │ │ │ ├── lodash.isarguments@3.1.0 </tspan>
<tspan x="10" y="1114">  │ │ │ └── lodash.isarray@3.0.4 </tspan>
<tspan x="10" y="1130">  │ │ ├── lodash.restparam@3.6.1 </tspan>
<tspan x="10" y="1146">  │ │ └── lodash.templatesettings@3.1.1 </tspan>
<tspan x="10" y="1162">  │ ├── minimist@1.2.0 </tspan>
<tspan x="10" y="1178">  │ ├─┬ multipipe@0.1.2 </tspan>
<tspan x="10" y="1194">  │ │ └─┬ duplexer2@0.0.2 </tspan>
<tspan x="10" y="1210">  │ │   └─┬ readable-stream@1.1.14 </tspan>
<tspan x="10" y="1226">  │ │     ├── isarray@0.0.1 </tspan>
<tspan x="10" y="1242">  │ │     └── string_decoder@0.10.31 </tspan>
<tspan x="10" y="1258">  │ ├── object-assign@3.0.0 </tspan>
<tspan x="10" y="1274">  │ ├── replace-ext@0.0.1 </tspan>
<tspan x="10" y="1290">  │ └─┬ vinyl@0.5.3 </tspan>
<tspan x="10" y="1306">  │   ├── clone@1.0.2 </tspan>
<tspan x="10" y="1322">  │   └── clone-stats@0.0.1 </tspan>
<tspan x="10" y="1338">  └─┬ through2@2.0.3 </tspan>
<tspan x="10" y="1354">    ├─┬ readable-stream@2.2.9 </tspan>
<tspan x="10" y="1370">    │ ├── buffer-shims@1.0.0 </tspan>
<tspan x="10" y="1386">    │ ├── core-util-is@1.0.2 </tspan>
<tspan x="10" y="1402">    │ ├── isarray@1.0.0 </tspan>
<tspan x="10" y="1418">    │ ├── process-nextick-args@1.0.7 </tspan>
<tspan x="10" y="1434">    │ ├── string_decoder@1.0.0 </tspan>
<tspan x="10" y="1450">    │ └── util-deprecate@1.0.2 </tspan>
<tspan x="10" y="1466">    └── xtend@4.0.1</tspan>
</text>
</svg>
